ply
format ascii 1.0
comment VCGLIB generated
element vertex 4
property float x
property float y
property float z
property float nx
property float ny
property float nz
property uchar red
property uchar green
property uchar blue
property uchar alpha
element face 4
property list uchar int vertex_indices
end_header
0.4216293 0 0 -1 0 0 0 0 0 255 
-0.1557209 0 0.8164966 0.2137243 0 -0.976894 255 0 0 255 
-0.1557209 -0.7071068 -0.4082483 0.2137245 0.846015 0.488447 255 0 0 255 
-0.1557209 0.7071068 -0.4082483 0.2137245 -0.846015 0.488447 255 0 0 255 
3 0 2 1 
3 0 3 2 
3 0 1 3 
3 1 2 3 
